<svg id="Layer_1" data-name="Layer 1" xmlns="http://www.w3.org/2000/svg" xmlns:xlink="http://www.w3.org/1999/xlink" viewBox="0 0 841.82 113.52"><defs><style>.cls-1{fill:#fff;}.cls-2{fill:url(#linear-gradient);}.cls-3{fill:url(#linear-gradient-2);}.cls-4{fill:url(#linear-gradient-3);}.cls-5{fill:url(#linear-gradient-4);}.cls-6{fill:url(#linear-gradient-5);}.cls-7{fill:url(#linear-gradient-6);}.cls-8{fill:url(#linear-gradient-7);}.cls-9{fill:url(#linear-gradient-8);}.cls-10{fill:url(#linear-gradient-9);}.cls-11{fill:url(#linear-gradient-10);}.cls-12{fill:#f4ada4;}.cls-13{fill:url(#linear-gradient-11);}.cls-14{fill:none;}.cls-15{fill:url(#linear-gradient-12);}.cls-16{fill:url(#linear-gradient-13);}.cls-17{fill:#f9f2d7;}.cls-18{fill:url(#linear-gradient-14);}</style><linearGradient id="linear-gradient" x1="17.39" y1="121.82" x2="39.83" y2="29.89" gradientUnits="userSpaceOnUse"><stop offset="0" stop-color="#143146"/><stop offset="0.51" stop-color="#00627a"/><stop offset="1" stop-color="#143146"/></linearGradient><linearGradient id="linear-gradient-2" x1="-48.09" y1="73.64" x2="31.8" y2="82.54" gradientUnits="userSpaceOnUse"><stop offset="0" stop-color="#143146"/><stop offset="0.49" stop-color="#00627a"/><stop offset="1" stop-color="#143146"/></linearGradient><linearGradient id="linear-gradient-3" x1="14.99" y1="56.77" x2="107.19" y2="56.77" gradientUnits="userSpaceOnUse"><stop offset="0" stop-color="#2195a0"/><stop offset="0.56" stop-color="#6ba5bd"/><stop offset="1" stop-color="#2195a0"/></linearGradient><linearGradient id="linear-gradient-4" x1="31.22" y1="55.52" x2="87.29" y2="87.29" xlink:href="#linear-gradient-3"/><linearGradient id="linear-gradient-5" x1="79.04" y1="22.05" x2="89.32" y2="47.24" gradientUnits="userSpaceOnUse"><stop offset="0" stop-color="#24465b"/><stop offset="1" stop-color="#24465b" stop-opacity="0"/></linearGradient><linearGradient id="linear-gradient-6" x1="30.29" y1="92.57" x2="18.28" y2="76.61" gradientUnits="userSpaceOnUse"><stop offset="0" stop-color="#183242" stop-opacity="0"/><stop offset="1" stop-color="#183242"/></linearGradient><linearGradient id="linear-gradient-7" x1="60.44" y1="62.06" x2="69.67" y2="84.67" xlink:href="#linear-gradient-5"/><linearGradient id="linear-gradient-8" x1="44.32" y1="124.74" x2="44.72" y2="105.53" xlink:href="#linear-gradient-5"/><linearGradient id="linear-gradient-9" x1="61.01" y1="-5.4" x2="171.37" y2="35.54" gradientUnits="userSpaceOnUse"><stop offset="0.18" stop-color="#ef7966"/><stop offset="0.54" stop-color="#ee8b82"/><stop offset="1" stop-color="#ef7966"/></linearGradient><linearGradient id="linear-gradient-10" x1="113.37" y1="-43.98" x2="123.34" y2="50.99" gradientUnits="userSpaceOnUse"><stop offset="0.18" stop-color="#ef7966"/><stop offset="0.54" stop-color="#f4a191"/><stop offset="1" stop-color="#ef7966"/></linearGradient><linearGradient id="linear-gradient-11" x1="131.11" y1="14.18" x2="161.04" y2="14.18" gradientUnits="userSpaceOnUse"><stop offset="0.18" stop-color="#ef7966"/><stop offset="0.54" stop-color="#bc6566" stop-opacity="0.7"/><stop offset="1" stop-color="#ef7966"/></linearGradient><linearGradient id="linear-gradient-12" x1="5.47" y1="65" x2="126" y2="65" gradientUnits="userSpaceOnUse"><stop offset="0" stop-color="#efe4b2"/><stop offset="0.5" stop-color="#e9e0bb"/><stop offset="1" stop-color="#efe4b2"/></linearGradient><linearGradient id="linear-gradient-13" x1="57.14" y1="-3.33" x2="69.72" y2="77.21" gradientUnits="userSpaceOnUse"><stop offset="0" stop-color="#efe4b2"/><stop offset="0.48" stop-color="#f9f2d7"/><stop offset="1" stop-color="#efe4b2"/></linearGradient><linearGradient id="linear-gradient-14" x1="70.15" y1="61.44" x2="124.25" y2="61.44" gradientUnits="userSpaceOnUse"><stop offset="0" stop-color="#efe4b2"/><stop offset="0.5" stop-color="#b1ab90" stop-opacity="0.6"/><stop offset="1" stop-color="#efe4b2"/></linearGradient></defs><title>fakturan_logo_color</title><path class="cls-1" d="M236.25,48.27V99.34H231.1V48.27h-5.73V43.11h5.73V27.88A16.33,16.33,0,0,1,236,17a15.44,15.44,0,0,1,10.82-4.35,21,21,0,0,1,6.75,1.2l-1.6,4.58a11.69,11.69,0,0,0-4.64-1,11.32,11.32,0,0,0-7.67,3.26,10.93,10.93,0,0,0-3.38,7.62V43.11H247.7v5.16Z" transform="translate(-0.07)"/><path class="cls-1" d="M324.16,99.34H319V87.89a39.08,39.08,0,0,1-3.26,3.83A31.47,31.47,0,0,1,262,69.51a30.32,30.32,0,0,1,9.22-22.27,31.45,31.45,0,0,1,44.49,0A39.08,39.08,0,0,1,319,51.07v-8h5.15ZM319,74.6V64.41a26,26,0,0,0-51.53,5.1A26,26,0,0,0,319,74.6Z" transform="translate(-0.07)"/><path class="cls-1" d="M374.63,43.11,360.77,60.29l22.1,39.05h-6.41L357.39,64.41l-5,6.24V99.34H347.2V19.18h5.15V62.41L368,43.11Z" transform="translate(-0.07)"/><path class="cls-1" d="M408.2,43.11V19.18h5.15V43.11H424.8v5.16H413.35V99.34H408.2V48.27H396.75V43.11Z" transform="translate(-0.07)"/><path class="cls-1" d="M467.6,100.14q-10.55,0-16.78-6.24a21.92,21.92,0,0,1-6.41-15.75v-35h5.15V77.7a16.34,16.34,0,0,0,5.21,12.19A17.44,17.44,0,0,0,467.54,95a17,17,0,0,0,12.28-5.07A16.49,16.49,0,0,0,485,77.7V43.11h5.15v35a21.92,21.92,0,0,1-6.41,15.75Q477.5,100.14,467.6,100.14Z" transform="translate(-0.07)"/><path class="cls-1" d="M513.19,43.11h5.16V53.36A34.26,34.26,0,0,1,522.07,49q6.81-6.81,14-7.15v5.61q-4.87.23-10.08,5.44a24.78,24.78,0,0,0-7.61,17.46v29h-5.16Z" transform="translate(-0.07)"/><path class="cls-1" d="M614,99.34h-5.15V87.89a39.08,39.08,0,0,1-3.26,3.83,31.47,31.47,0,0,1-53.71-22.21,30.32,30.32,0,0,1,9.22-22.27,31.45,31.45,0,0,1,44.49,0,39.08,39.08,0,0,1,3.26,3.83v-8H614ZM608.89,74.6V64.41a26,26,0,0,0-51.53,5.1,26,26,0,0,0,51.53,5.09Z" transform="translate(-0.07)"/><path class="cls-1" d="M642.23,55.65V99.34h-5.15V43.11h5.15v3.61a22.59,22.59,0,0,1,16.38-7q10,0,16.2,6.24a21.92,21.92,0,0,1,6.41,15.74V99.34h-5.15V62.18A16.47,16.47,0,0,0,670.89,50a17.48,17.48,0,0,0-24.53-.09A19.46,19.46,0,0,0,642.23,55.65Z" transform="translate(-0.07)"/><path class="cls-1" d="M708.13,91.38a5.13,5.13,0,0,1,0,7.27,5.18,5.18,0,0,1-7.27,0,5.11,5.11,0,0,1,0-7.27,5.18,5.18,0,0,1,7.27,0Z" transform="translate(-0.07)"/><path class="cls-1" d="M735,55.65V99.34h-5.15V43.11H735v3.61a22.59,22.59,0,0,1,16.38-7q10,0,16.2,6.24A22,22,0,0,1,774,61.72V99.34h-5.16V62.18A16.43,16.43,0,0,0,763.63,50a17.48,17.48,0,0,0-24.53-.09A19.46,19.46,0,0,0,735,55.65Z" transform="translate(-0.07)"/><path class="cls-1" d="M836.75,43.12V77.69a16.44,16.44,0,0,1-5.2,12.23,17.59,17.59,0,0,1-4,3A16.7,16.7,0,0,1,819.28,95a17.45,17.45,0,0,1-12.78-5.11,16.25,16.25,0,0,1-5.08-10.13,17.42,17.42,0,0,1-.11-2.06V43.12h-5.16v35a21.88,21.88,0,0,0,6.41,15.74c4.16,4.15,9.76,6.25,16.78,6.25a22.42,22.42,0,0,0,13.93-4.34,20.75,20.75,0,0,0,2.2-1.91,21.85,21.85,0,0,0,6.42-15.74v-35Z" transform="translate(-0.07)"/><path class="cls-2" d="M14.82,113.52H41.45C30.6,113.51,25,104.72,29,93.88L46.07,47.27,39.33,48c-11.56,0-22.68,8.95-26.89,20.51L5,84.09l-3.63,9.8C-2.61,104.73,3,113.52,13.82,113.52Z" transform="translate(-0.07)"/><path class="cls-3" d="M35.14,74.92c-10,7.23-25,30.59-18.19,38.6H13.81a16.21,16.21,0,0,1-4-.45c-8.18-1.84-12-9.71-8.52-19.16L11.49,68.59a33.51,33.51,0,0,1,16.78-18.2,22.34,22.34,0,0,1,3.36-1C33.37,59.41,42.91,69.26,35.14,74.92Z" transform="translate(-0.07)"/><path class="cls-4" d="M42.61,113.51H18.5c10.85,0,22.83-8.79,26.78-19.64L72,21C76.16,9.41,88.94,0,100.5,0h6.69L72.9,93.86C69,104.71,57,113.5,46.13,113.5Z" transform="translate(-0.07)"/><path class="cls-5" d="M97.1,27.66c-10.95,1.26-25.44,5.12-33.35,21.17S54,76.86,54.18,93c.17,10.56-11,17.14-21.48,20.55H18.52c10.84,0,22.84-8.79,26.76-19.63L72,21a26.77,26.77,0,0,1,1.47-3.31Z" transform="translate(-0.07)"/><path class="cls-6" d="M97.1,27.66l-6.29-2.17L69.34,28.13l-1.69,4.62s21,6.62,22.65,13.45Z" transform="translate(-0.07)"/><path class="cls-7" d="M35.93,74.88,27.21,73,6.74,79.45,5,84.09S25.53,88.33,28.56,95Z" transform="translate(-0.07)"/><path class="cls-8" d="M79.82,74.92H52.22l-.31.86s19.38,6,22.5,14Z" transform="translate(-0.07)"/><path class="cls-9" d="M70.92,98.11c-5.16,8.81-15.4,15.39-24.76,15.39H18.52c8.19,0,17-5,22.56-12.1C49.67,100.7,61.7,100.12,70.92,98.11Z" transform="translate(-0.07)"/><path class="cls-10" d="M171.76,0l-5.31,14.61c-2.61,7.19-10.56,13-17.74,13l-51.61,0s-25.17-.19-29.45,5.09L72,21C76.16,9.41,88.94,0,100.5,0Z" transform="translate(-0.07)"/><path class="cls-11" d="M171.76,0s-9.87,7.38-15.37,9.52c-3.54,1.37-17.22,8.14-30.4,9-14.93.95-24-5.77-32.91-5.49-9.3.29-17,4.64-25.43,19.72L72,21C76.17,9.42,89,0,100.51,0Z" transform="translate(-0.07)"/><path class="cls-12" d="M72.43,22.43A28.37,28.37,0,0,1,87.14,4.68,27.57,27.57,0,0,1,98.78,2l11.54.07c7.69,0,15.38.17,23.07.33s15.38.4,23.06.72a.11.11,0,0,1,.11.12.13.13,0,0,1-.12.12c-7.68.32-15.36.6-23,.73s-15.36.33-23,.34l-11.51.09a29.37,29.37,0,0,0-10.66,2.4c-6.69,3-12,8.81-15.53,15.58a.13.13,0,0,1-.16.07A.14.14,0,0,1,72.43,22.43Z" transform="translate(-0.07)"/><path class="cls-13" d="M171.5.7l-5.05,13.93c-2.59,7.2-10.57,13-17.73,13H104.07c18.68,0,37.45.52,47.66-2.85C164,20.75,170.33,3.58,171.5.7Z" transform="translate(-0.07)"/><path class="cls-12" d="M151.73,24.8a24.29,24.29,0,0,0,6.67-4.28,33.28,33.28,0,0,0,5.26-5.92A81.31,81.31,0,0,0,171.5.7a51,51,0,0,1-7.1,14.44C161.25,19.47,157,23.37,151.73,24.8Z" transform="translate(-0.07)"/><path class="cls-14" d="M5.49,82.72s0,0,0,0,0,0,0,0a6.28,6.28,0,0,1-.22.59v0c0,.11-.1.23-.12.3s0,.06,0,.08L5,84l.05-.15s0,0,0-.08.08-.19.12-.3" transform="translate(-0.07)"/><path class="cls-14" d="M5,84.09H5l.27.06" transform="translate(-0.07)"/><path class="cls-15" d="M6.37,81.37a4.41,4.41,0,0,0-.9,1.39l5.36-14.54c4.22-11.56,17-20.95,28.55-20.95l86.62,0-5.32,14.63c-2.62,7.18-10.56,13-17.74,13h-67s-.26,0-.74,0C31.1,75,11.29,76.07,6.37,81.37Z" transform="translate(-0.07)"/><path class="cls-16" d="M126,47.25c-5.32,4.57-24.75,12.41-41.67,14.69-21.66,2.92-35.76-3.09-50.44-2.28-15.18.84-19.1,7.5-25.47,15.24l2.42-6.68c4.23-11.56,17-20.93,28.57-20.93H61.66Z" transform="translate(-0.07)"/><path class="cls-17" d="M11.49,69.74A28.51,28.51,0,0,1,26.24,52.07a28,28,0,0,1,11.6-2.65l11.54.07c7.69,0,15.38.16,23.07.3s15.38.42,23.06.64a.12.12,0,0,1,.12.12.13.13,0,0,1-.12.12c-7.69.22-15.37.57-23.05.66s-15.36.31-23,.32l-11.51.07a29.4,29.4,0,0,0-10.7,2.42c-6.72,3-12,8.88-15.49,15.68a.11.11,0,0,1-.16.06A.13.13,0,0,1,11.49,69.74Z" transform="translate(-0.07)"/><path class="cls-18" d="M125.69,48l-5,13.93c-2.6,7.2-10.57,13-17.74,13H58.26c18.69,0,37.46.52,47.67-2.84C118.2,68,124.52,50.85,125.69,48Z" transform="translate(-0.07)"/><path class="cls-17" d="M105.93,72.07a24.56,24.56,0,0,0,6.67-4.29,33.68,33.68,0,0,0,5.26-5.92A81.56,81.56,0,0,0,125.69,48a50.44,50.44,0,0,1-7.1,14.44C115.45,66.73,111.17,70.63,105.93,72.07Z" transform="translate(-0.07)"/></svg>