<?xml version="1.0" encoding="utf-8"?>
<!-- Generator: Adobe Illustrator 23.0.6, SVG Export Plug-In . SVG Version: 6.00 Build 0)  -->
<svg version="1.1" id="Lager_1" xmlns="http://www.w3.org/2000/svg" xmlns:xlink="http://www.w3.org/1999/xlink" x="0px" y="0px"
	 viewBox="0 0 616 312" style="enable-background:new 0 0 616 312;" xml:space="preserve">
<style type="text/css">
	.st0{fill:#FFFFFF;}
	.st1{fill:url(#SVGID_1_);}
	.st2{fill:url(#SVGID_2_);}
	.st3{fill:url(#SVGID_3_);}
	.st4{fill:url(#SVGID_4_);}
	.st5{fill:url(#SVGID_5_);}
	.st6{fill:url(#SVGID_6_);}
	.st7{fill:url(#SVGID_7_);}
	.st8{fill:url(#SVGID_8_);}
	.st9{fill:url(#SVGID_9_);}
	.st10{fill:url(#SVGID_10_);}
	.st11{fill:#F4ADA4;}
	.st12{fill:url(#SVGID_11_);}
	.st13{fill:none;}
	.st14{fill:url(#SVGID_12_);}
	.st15{fill:url(#SVGID_13_);}
	.st16{fill:#F9F2D7;}
	.st17{fill:url(#SVGID_14_);}
</style>
<g id="Group" transform="translate(0.000000, 223.000000)">
	<path id="Shape" class="st0" d="M11.7,36.1V87H6.6V36.1H0.9V31h5.7V15.8c0.2-4.2,1.8-7.9,4.8-10.9c3.1-2.9,6.7-4.3,10.8-4.3
		c2.1,0,4.4,0.4,6.7,1.2l-1.6,4.6c-1.6-0.7-3.1-1-4.6-1c-2.7,0-5.2,1.1-7.6,3.3c-2.1,2.1-3.3,4.6-3.4,7.6V31h11.4v5.1H11.7z"/>
	<path class="st0" d="M99.3,87h-5.1V75.6c-1,1.3-2.1,2.6-3.3,3.8c-6.1,6.1-13.5,9.2-22.2,9.2c-8.6,0-16-3.1-22.1-9.2
		s-9.2-13.5-9.2-22.1c0-8.7,3.1-16.1,9.2-22.2s13.5-9.2,22.1-9.2c8.7,0,16.1,3.1,22.2,9.2c1.2,1.2,2.3,2.5,3.3,3.8V31h5.1V87z
		 M94.1,62.3V52.1c-1-5-3.3-9.4-7.1-13.2c-5.1-5.1-11.2-7.6-18.3-7.6c-7.1,0-13.3,2.5-18.3,7.6c-5.1,5.1-7.6,11.2-7.6,18.3
		s2.5,13.2,7.6,18.3c5.1,5,11.2,7.6,18.3,7.6c7.1,0,13.3-2.5,18.3-7.6C90.8,71.7,93.2,67.3,94.1,62.3z"/>
	<polygon class="st0" points="149.5,31 135.7,48.1 157.7,87 151.3,87 132.3,52.2 127.3,58.4 127.3,87 122.2,87 122.2,7.1 127.3,7.1 
		127.3,50.2 142.9,31 	"/>
	<polygon class="st0" points="183,31 183,7.2 188.1,7.2 188.1,31 199.5,31 199.5,36.1 188.1,36.1 188.1,87 183,87 183,36.1 
		171.6,36.1 171.6,31 	"/>
	<path class="st0" d="M242.2,87.8c-7,0-12.6-2.1-16.7-6.2s-6.3-9.4-6.4-15.7V31h5.1v34.5c0,4.8,1.7,8.8,5.2,12.1
		c3.4,3.4,7.7,5.1,12.7,5.1c4.7,0,8.8-1.7,12.2-5c3.4-3.4,5.2-7.4,5.2-12.2V31h5.1v34.9c-0.1,6.3-2.2,11.5-6.4,15.7
		C254.1,85.7,248.7,87.8,242.2,87.8z"/>
	<path class="st0" d="M287.6,31h5.1v10.2c1.1-1.5,2.3-3,3.7-4.4c4.5-4.5,9.2-6.9,13.9-7.1v5.6c-3.2,0.2-6.6,2-10,5.4
		c-4.9,4.8-7.4,10.6-7.6,17.4V87h-5.1V31L287.6,31z"/>
	<path class="st0" d="M388.1,87H383V75.6c-1,1.3-2.1,2.6-3.3,3.8c-6.1,6.1-13.5,9.2-22.2,9.2c-8.6,0-16-3.1-22.1-9.2
		s-9.2-13.5-9.2-22.1c0-8.7,3.1-16.1,9.2-22.2s13.5-9.2,22.1-9.2c8.7,0,16.1,3.1,22.2,9.2c1.2,1.2,2.3,2.5,3.3,3.8V31h5.1V87z
		 M382.9,62.3V52.1c-1-5-3.3-9.4-7.1-13.2c-5.1-5.1-11.2-7.6-18.3-7.6s-13.3,2.5-18.3,7.6c-5.1,5.1-7.6,11.2-7.6,18.3
		s2.5,13.2,7.6,18.3c5.1,5,11.2,7.6,18.3,7.6s13.3-2.5,18.3-7.6C379.6,71.7,382,67.3,382.9,62.3z"/>
	<path class="st0" d="M416.1,43.5V87H411V31h5.1v3.6c4.7-4.6,10.1-7,16.3-7c6.6,0,12,2.1,16.1,6.2s6.3,9.4,6.4,15.7V87h-5.1V50
		c0-4.8-1.7-8.8-5.2-12.2c-3.4-3.4-7.5-5-12.2-5c-4.7,0-8.8,1.7-12.2,5C418.4,39.6,417,41.5,416.1,43.5z"/>
	<path class="st0" d="M481.8,79.1c1,1,1.5,2.2,1.5,3.6c0,1.4-0.5,2.7-1.5,3.7s-2.2,1.5-3.6,1.5c-1.4,0-2.6-0.5-3.6-1.5
		s-1.5-2.2-1.5-3.7c0-1.4,0.5-2.6,1.5-3.6s2.2-1.5,3.6-1.5C479.6,77.6,480.8,78.1,481.8,79.1z"/>
	<path class="st0" d="M508.5,43.5V87h-5.1V31h5.1v3.6c4.7-4.6,10.1-7,16.3-7c6.6,0,12,2.1,16.1,6.2c4.1,4.1,6.3,9.4,6.4,15.7V87
		h-5.1V50c0-4.8-1.7-8.8-5.2-12.2c-3.4-3.4-7.5-5-12.2-5s-8.8,1.7-12.2,5C510.8,39.6,509.4,41.5,508.5,43.5z"/>
	<path class="st0" d="M609.9,31v34.4c0,4.8-1.7,8.8-5.2,12.2c-1.2,1.2-2.6,2.2-4,3c-2.5,1.4-5.2,2.1-8.2,2.1
		c-5.1,0-9.3-1.7-12.7-5.1c-2.9-2.9-4.6-6.2-5.1-10.1c-0.1-0.7-0.1-1.3-0.1-2.1V31h-5.1v34.9c0.1,6.3,2.2,11.5,6.4,15.7
		c4.1,4.1,9.7,6.2,16.7,6.2c5.5,0,10.1-1.5,13.9-4.3c0.8-0.6,1.5-1.2,2.2-1.9c4.2-4.1,6.3-9.4,6.4-15.7V31H609.9z"/>
</g>
<g transform="translate(206.000000, 0.000000)">
	
		<linearGradient id="SVGID_1_" gradientUnits="userSpaceOnUse" x1="-195.7629" y1="573.1931" x2="-195.2749" y2="574.58" gradientTransform="matrix(71.4488 0 0 -103 14014.8184 59228.9688)">
		<stop  offset="0" style="stop-color:#143146"/>
		<stop  offset="0.5104" style="stop-color:#00627A"/>
		<stop  offset="1" style="stop-color:#143146"/>
	</linearGradient>
	<path class="st1" d="M23.8,177.2h42.9h-1.6c-16.9,0-25.5-13.7-19.4-30.5l26.6-72.4l-10.5,1.1c-18,0-35.3,13.9-41.8,31.9L8.4,131.6
		l-5.6,15.2c-6.1,16.9,2.6,30.5,19.4,30.5L23.8,177.2z"/>
	
		<linearGradient id="SVGID_2_" gradientUnits="userSpaceOnUse" x1="-197.4335" y1="573.8516" x2="-195.3356" y2="573.7126" gradientTransform="matrix(59.1781 0 0 -99.6 11609.8096 57270.8438)">
		<stop  offset="0" style="stop-color:#143146"/>
		<stop  offset="0.4896" style="stop-color:#00627A"/>
		<stop  offset="1" style="stop-color:#143146"/>
	</linearGradient>
	<path class="st2" d="M55.4,117.2c-15.6,11.2-38.9,47.5-28.3,60h-4.9c-2.2,0-4.2-0.2-6.1-0.7c-12.7-2.9-18.6-15.1-13.2-29.8
		l15.8-39.3C23,95.3,33,84.7,44.8,79.1c1.8-0.9,3.3-0.9,5.2-1.5C52.6,93.1,67.5,108.4,55.4,117.2z"/>
	
		<linearGradient id="SVGID_3_" gradientUnits="userSpaceOnUse" x1="-196.0697" y1="574.8878" x2="-195.0697" y2="574.8878" gradientTransform="matrix(143.4 0 0 -176.4 28140.498 101499.1953)">
		<stop  offset="0" style="stop-color:#2195A0"/>
		<stop  offset="0.5648" style="stop-color:#6BA5BD"/>
		<stop  offset="1" style="stop-color:#2195A0"/>
	</linearGradient>
	<path class="st3" d="M67,177.2H24.1h5.5c16.9,0,35.5-13.7,41.6-30.5l41.5-113.3c6.5-18,26.4-32.5,44.4-32.6h10.4l-53.3,145.8
		c-6.1,16.9-24.8,30.5-41.6,30.5L67,177.2z"/>
	
		<linearGradient id="SVGID_4_" gradientUnits="userSpaceOnUse" x1="-195.9203" y1="574.7151" x2="-195.2067" y2="574.3836" gradientTransform="matrix(122.1 0 0 -148.9 23971.1992 85662.125)">
		<stop  offset="0" style="stop-color:#2195A0"/>
		<stop  offset="0.5648" style="stop-color:#6BA5BD"/>
		<stop  offset="1" style="stop-color:#2195A0"/>
	</linearGradient>
	<path class="st4" d="M151.7,43.8c-17,2-39.5,7.9-51.8,32.9c-12.2,25-15.2,43.5-14.9,68.5c0.3,16.4-17,26.6-33.4,31.9h-22
		c16.8,0,35.5-13.7,41.6-30.5l41.5-113.3c0.6-1.7,1.4-3.4,2.3-5.1L151.7,43.8z"/>
	
		<linearGradient id="SVGID_5_" gradientUnits="userSpaceOnUse" x1="-195.8314" y1="568.826" x2="-195.4827" y2="567.6105" gradientTransform="matrix(45.8 0 0 -32.2 9092.6992 18351.2559)">
		<stop  offset="0" style="stop-color:#24465B"/>
		<stop  offset="1" style="stop-color:#24465B;stop-opacity:0"/>
	</linearGradient>
	<path class="st5" d="M151.7,43.8l-9.8-3.4l-33.4,4.1l-2.6,7.2c0,0,32.6,10.3,35.2,20.9L151.7,43.8z"/>
	
		<linearGradient id="SVGID_6_" gradientUnits="userSpaceOnUse" x1="-195.3904" y1="568.2503" x2="-195.7774" y2="568.9757" gradientTransform="matrix(48.2 0 0 -34.2 9465.5996 19578.8359)">
		<stop  offset="0" style="stop-color:#183242;stop-opacity:0"/>
		<stop  offset="1" style="stop-color:#183242"/>
	</linearGradient>
	<path class="st6" d="M56.6,117.2l-13.6-3l-31.8,10.1l-2.8,7.2c0,0,32,6.6,36.7,16.9L56.6,117.2z"/>
	
		<linearGradient id="SVGID_7_" gradientUnits="userSpaceOnUse" x1="-195.9243" y1="566.2365" x2="-195.5939" y2="564.7086" gradientTransform="matrix(43.4 0 0 -23 8597.8008 13120.6699)">
		<stop  offset="0" style="stop-color:#24465B"/>
		<stop  offset="1" style="stop-color:#24465B;stop-opacity:0"/>
	</linearGradient>
	<path class="st7" d="M124.8,117.2H81.9l-0.5,1.3c0,0,30.1,9.3,35,21.7L124.8,117.2z"/>
	
		<linearGradient id="SVGID_8_" gradientUnits="userSpaceOnUse" x1="-195.6303" y1="564.0687" x2="-195.6226" y2="565.3175" gradientTransform="matrix(81.5 0 0 -23.9 16013.5 13675.876)">
		<stop  offset="0" style="stop-color:#24465B"/>
		<stop  offset="1" style="stop-color:#24465B;stop-opacity:0"/>
	</linearGradient>
	<path class="st8" d="M111,153.2c-8,13.7-23.9,23.9-38.5,23.9h-43c12.7,0,26.4-7.8,35.1-18.8C78,157.3,96.7,156.4,111,153.2z"/>
	
		<linearGradient id="SVGID_9_" gradientUnits="userSpaceOnUse" x1="-196.1246" y1="571.8469" x2="-195.0653" y2="570.597" gradientTransform="matrix(161.9 0 0 -50.9 31848.2012 29099.4004)">
		<stop  offset="0.1813" style="stop-color:#EF7966"/>
		<stop  offset="0.5389" style="stop-color:#EE8B82"/>
		<stop  offset="1" style="stop-color:#EF7966"/>
	</linearGradient>
	<path class="st9" d="M267.7,0.8l-8.3,22.7c-4.1,11.2-16.4,20.2-27.6,20.2h-80.2c0,0-39.1-0.3-45.8,7.9l6.7-18.3
		c6.5-18,26.4-32.5,44.4-32.6L267.7,0.8z"/>
	
		<linearGradient id="SVGID_10_" gradientUnits="userSpaceOnUse" x1="-195.6228" y1="573.0264" x2="-195.5269" y2="570.127" gradientTransform="matrix(161.7 0 0 -50.9 31809.2031 29099.502)">
		<stop  offset="0.1813" style="stop-color:#EF7966"/>
		<stop  offset="0.5389" style="stop-color:#F4A191"/>
		<stop  offset="1" style="stop-color:#EF7966"/>
	</linearGradient>
	<path class="st10" d="M267.7,0.8c0,0-15.3,11.5-23.9,14.8c-5.5,2.1-26.8,12.7-47.2,14c-23.2,1.5-37.3-9-51.1-8.5
		c-14.5,0.5-26.4,7.2-39.5,30.6l6.7-18.3c6.6-18,26.4-32.6,44.4-32.6H267.7L267.7,0.8z"/>
	<path class="st11" d="M113.4,35.7c3.3-11.6,11.5-22.2,22.9-27.6c5.6-2.8,11.9-4,18.1-4.1l17.9,0.1c12,0,23.9,0.3,35.9,0.5
		c11.9,0.2,23.9,0.6,35.8,1.1c0.1,0,0.2,0.1,0.2,0.2s-0.1,0.2-0.2,0.2c-11.9,0.5-23.9,0.9-35.8,1.1c-11.9,0.3-23.9,0.5-35.8,0.5
		l-17.9,0.1c-5.8,0.2-11.4,1.5-16.6,3.7c-10.4,4.7-18.6,13.7-24.1,24.2c0,0.1-0.1,0.1-0.2,0.1C113.4,35.8,113.3,35.7,113.4,35.7z"/>
	
		<linearGradient id="SVGID_11_" gradientUnits="userSpaceOnUse" x1="-195.6943" y1="570.0508" x2="-195.2505" y2="570.0508" gradientTransform="matrix(104.8 0 0 -41.8036 20713.2969 23852.9863)">
		<stop  offset="0.1813" style="stop-color:#EF7966"/>
		<stop  offset="0.5389" style="stop-color:#BC6566;stop-opacity:0.7"/>
		<stop  offset="1" style="stop-color:#EF7966"/>
	</linearGradient>
	<path class="st12" d="M267.3,1.9l-7.8,21.6c-4,11.2-16.4,20.2-27.6,20.2h-69.4c29-0.1,58.2,0.8,74.1-4.4
		C255.7,33,265.5,6.4,267.3,1.9z"/>
	<path class="st11" d="M236.6,39.3c3.9-1.6,7.3-4,10.4-6.7s5.8-5.8,8.2-9.2c4.9-6.6,8.6-14.1,12.2-21.6c-2.5,8-6.1,15.6-11,22.4
		C251.4,31,244.7,37.1,236.6,39.3z"/>
	<path class="st13" d="M9.3,129.3C9.3,129.4,9.3,129.4,9.3,129.3c0,0.1-0.1,0.1-0.1,0.1c-0.1,0.4-0.2,0.6-0.4,0.9l0,0l0,0
		c-0.1,0.2-0.1,0.4-0.2,0.5c0,0.1,0,0.1-0.1,0.1l-0.1,0.2l0.1-0.2c0,0,0-0.1,0.1-0.1c0-0.1,0.1-0.3,0.2-0.5"/>
	<path class="st13" d="M8.5,131.5L8.5,131.5c0.1,0,0.2,0.1,0.4,0.1"/>
	
		<linearGradient id="SVGID_12_" gradientUnits="userSpaceOnUse" x1="-196.0534" y1="571.598" x2="-195.0534" y2="571.598" gradientTransform="matrix(187.3 0 0 -55.3 36730.1016 31711.1152)">
		<stop  offset="0" style="stop-color:#EFE4B2"/>
		<stop  offset="0.5026" style="stop-color:#E9E0BB"/>
		<stop  offset="1" style="stop-color:#EFE4B2"/>
	</linearGradient>
	<path class="st14" d="M10.7,127.2c-0.6,0.7-1.1,1.4-1.4,2.2l8.3-22.6C24.2,88.8,44,74.2,62,74.2l134.6-0.1l-8.3,22.7
		c-4.1,11.2-16.4,20.2-27.6,20.2H56.6c0,0-0.4,0-1.2,0.1C49.1,117.4,18.3,119,10.7,127.2L10.7,127.2z"/>
	
		<linearGradient id="SVGID_13_" gradientUnits="userSpaceOnUse" x1="-195.6402" y1="572.5547" x2="-195.5333" y2="569.6442" gradientTransform="matrix(182.7 0 0 -43 35833.1016 24615.4707)">
		<stop  offset="0" style="stop-color:#EFE4B2"/>
		<stop  offset="0.4767" style="stop-color:#F9F2D7"/>
		<stop  offset="1" style="stop-color:#EFE4B2"/>
	</linearGradient>
	<path class="st15" d="M196.6,74.2c-8.3,7.1-38.5,19.3-64.7,22.8c-33.7,4.5-55.6-4.8-78.4-3.5c-23.6,1.3-29.7,11.7-39.6,23.7
		l3.8-10.4c6.6-18,26.4-32.5,44.4-32.5h34.6L196.6,74.2z"/>
	<path class="st16" d="M18.7,109.2c3.4-11.5,11.6-22.1,22.9-27.5c5.6-2.8,11.9-3.9,18-4.1l17.9,0.1c12,0,23.9,0.3,35.9,0.5
		c11.9,0.1,23.9,0.7,35.8,1c0.1,0,0.2,0.1,0.2,0.2s-0.1,0.2-0.2,0.2c-11.9,0.3-23.9,0.9-35.8,1c-11.9,0.2-23.9,0.5-35.8,0.5
		l-17.9,0.1c-5.8,0.2-11.4,1.5-16.6,3.8C32.7,89.7,24.4,98.8,19,109.4c0,0.1-0.1,0.1-0.2,0.1C18.7,109.4,18.6,109.3,18.7,109.2z"/>
	
		<linearGradient id="SVGID_14_" gradientUnits="userSpaceOnUse" x1="-195.9189" y1="570.0508" x2="-195.1166" y2="570.0508" gradientTransform="matrix(104.8 0 0 -41.8036 20642.1016 23926.3848)">
		<stop  offset="0" style="stop-color:#EFE4B2"/>
		<stop  offset="0.5026" style="stop-color:#B1AB90;stop-opacity:0.6"/>
		<stop  offset="1" style="stop-color:#EFE4B2"/>
	</linearGradient>
	<path class="st17" d="M196.1,75.3l-7.8,21.6c-4,11.2-16.4,20.2-27.6,20.2H91.3c29-0.1,58.2,0.8,74.1-4.4
		C184.5,106.5,194.3,79.8,196.1,75.3z"/>
	<path class="st16" d="M165.4,112.8c3.9-1.6,7.3-4,10.4-6.7c3.1-2.7,5.8-5.8,8.2-9.2c4.9-6.6,8.6-14.1,12.2-21.6
		c-2.5,8-6.1,15.6-11,22.4C180.2,104.5,173.5,110.6,165.4,112.8z"/>
</g>
</svg>
